<mxfile host="Electron" modified="2024-03-26T12:46:18.325Z" agent="Mozilla/5.0 (Windows NT 10.0; Win64; x64) AppleWebKit/537.36 (KHTML, like Gecko) draw.io/24.0.4 Chrome/120.0.6099.109 Electron/28.1.0 Safari/537.36" etag="UxTapzLAsI55-Gq-QM7I" version="24.0.4" type="device">
  <diagram name="Страница — 1" id="-oSeMhTCia-Ojk3NSs4r">
    <mxGraphModel dx="2338" dy="982" grid="1" gridSize="10" guides="1" tooltips="1" connect="1" arrows="1" fold="1" page="1" pageScale="1" pageWidth="827" pageHeight="1169" math="0" shadow="0">
      <root>
        <mxCell id="0" />
        <mxCell id="1" parent="0" />
        <mxCell id="J9kihPEdFHZ93R9M1KcA-1" value="+Lec03BLib" style="swimlane;fontStyle=0;childLayout=stackLayout;horizontal=1;startSize=30;horizontalStack=0;resizeParent=1;resizeParentMax=0;resizeLast=0;collapsible=1;marginBottom=0;whiteSpace=wrap;html=1;" parent="1" vertex="1">
          <mxGeometry x="590" y="220" width="160" height="120" as="geometry" />
        </mxCell>
        <mxCell id="J9kihPEdFHZ93R9M1KcA-2" value="+getL1(): IFactory&amp;nbsp;" style="text;strokeColor=none;fillColor=none;align=left;verticalAlign=middle;spacingLeft=4;spacingRight=4;overflow=hidden;points=[[0,0.5],[1,0.5]];portConstraint=eastwest;rotatable=0;whiteSpace=wrap;html=1;" parent="J9kihPEdFHZ93R9M1KcA-1" vertex="1">
          <mxGeometry y="30" width="160" height="30" as="geometry" />
        </mxCell>
        <mxCell id="J9kihPEdFHZ93R9M1KcA-3" value="+getL2(float): IFactory" style="text;strokeColor=none;fillColor=none;align=left;verticalAlign=middle;spacingLeft=4;spacingRight=4;overflow=hidden;points=[[0,0.5],[1,0.5]];portConstraint=eastwest;rotatable=0;whiteSpace=wrap;html=1;" parent="J9kihPEdFHZ93R9M1KcA-1" vertex="1">
          <mxGeometry y="60" width="160" height="30" as="geometry" />
        </mxCell>
        <mxCell id="J9kihPEdFHZ93R9M1KcA-4" value="+getL3(float, floar): IFactory" style="text;strokeColor=none;fillColor=none;align=left;verticalAlign=middle;spacingLeft=4;spacingRight=4;overflow=hidden;points=[[0,0.5],[1,0.5]];portConstraint=eastwest;rotatable=0;whiteSpace=wrap;html=1;" parent="J9kihPEdFHZ93R9M1KcA-1" vertex="1">
          <mxGeometry y="90" width="160" height="30" as="geometry" />
        </mxCell>
        <mxCell id="J9kihPEdFHZ93R9M1KcA-5" value="+L1Factory" style="swimlane;fontStyle=0;childLayout=stackLayout;horizontal=1;startSize=30;horizontalStack=0;resizeParent=1;resizeParentMax=0;resizeLast=0;collapsible=1;marginBottom=0;whiteSpace=wrap;html=1;" parent="1" vertex="1">
          <mxGeometry x="990" y="420" width="140" height="120" as="geometry" />
        </mxCell>
        <mxCell id="J9kihPEdFHZ93R9M1KcA-6" value="+getA(float): IBonus&amp;nbsp;" style="text;strokeColor=none;fillColor=none;align=left;verticalAlign=middle;spacingLeft=4;spacingRight=4;overflow=hidden;points=[[0,0.5],[1,0.5]];portConstraint=eastwest;rotatable=0;whiteSpace=wrap;html=1;" parent="J9kihPEdFHZ93R9M1KcA-5" vertex="1">
          <mxGeometry y="30" width="140" height="30" as="geometry" />
        </mxCell>
        <mxCell id="J9kihPEdFHZ93R9M1KcA-7" value="+getB(float, float): IBonus" style="text;strokeColor=none;fillColor=none;align=left;verticalAlign=middle;spacingLeft=4;spacingRight=4;overflow=hidden;points=[[0,0.5],[1,0.5]];portConstraint=eastwest;rotatable=0;whiteSpace=wrap;html=1;" parent="J9kihPEdFHZ93R9M1KcA-5" vertex="1">
          <mxGeometry y="60" width="140" height="30" as="geometry" />
        </mxCell>
        <mxCell id="J9kihPEdFHZ93R9M1KcA-8" value="+getC(float, float, float): IBonus" style="text;strokeColor=none;fillColor=none;align=left;verticalAlign=middle;spacingLeft=4;spacingRight=4;overflow=hidden;points=[[0,0.5],[1,0.5]];portConstraint=eastwest;rotatable=0;whiteSpace=wrap;html=1;" parent="J9kihPEdFHZ93R9M1KcA-5" vertex="1">
          <mxGeometry y="90" width="140" height="30" as="geometry" />
        </mxCell>
        <mxCell id="vjHTlfv4QYHzRZHoKTjB-27" style="edgeStyle=orthogonalEdgeStyle;rounded=0;orthogonalLoop=1;jettySize=auto;html=1;exitX=0.5;exitY=0;exitDx=0;exitDy=0;endArrow=block;endFill=0;dashed=1;" parent="1" source="J9kihPEdFHZ93R9M1KcA-9" edge="1">
          <mxGeometry relative="1" as="geometry">
            <mxPoint x="850" y="340" as="targetPoint" />
            <Array as="points">
              <mxPoint x="1200" y="420" />
              <mxPoint x="1200" y="360" />
              <mxPoint x="850" y="360" />
            </Array>
          </mxGeometry>
        </mxCell>
        <mxCell id="J9kihPEdFHZ93R9M1KcA-9" value="+L2&lt;span style=&quot;background-color: initial;&quot;&gt;Factory&lt;/span&gt;" style="swimlane;fontStyle=0;childLayout=stackLayout;horizontal=1;startSize=30;horizontalStack=0;resizeParent=1;resizeParentMax=0;resizeLast=0;collapsible=1;marginBottom=0;whiteSpace=wrap;html=1;" parent="1" vertex="1">
          <mxGeometry x="1143" y="420" width="140" height="210" as="geometry" />
        </mxCell>
        <mxCell id="J9kihPEdFHZ93R9M1KcA-15" value="&lt;div&gt;&amp;lt;&amp;lt;getter&amp;gt;&amp;gt;&lt;/div&gt;+A: float" style="text;strokeColor=none;fillColor=none;align=left;verticalAlign=middle;spacingLeft=4;spacingRight=4;overflow=hidden;points=[[0,0.5],[1,0.5]];portConstraint=eastwest;rotatable=0;whiteSpace=wrap;html=1;" parent="J9kihPEdFHZ93R9M1KcA-9" vertex="1">
          <mxGeometry y="30" width="140" height="30" as="geometry" />
        </mxCell>
        <mxCell id="J9kihPEdFHZ93R9M1KcA-13" value="&lt;div&gt;&amp;lt;&amp;lt;setter&amp;gt;&amp;gt;&lt;/div&gt;+A: float" style="text;strokeColor=none;fillColor=none;align=left;verticalAlign=middle;spacingLeft=4;spacingRight=4;overflow=hidden;points=[[0,0.5],[1,0.5]];portConstraint=eastwest;rotatable=0;whiteSpace=wrap;html=1;" parent="J9kihPEdFHZ93R9M1KcA-9" vertex="1">
          <mxGeometry y="60" width="140" height="30" as="geometry" />
        </mxCell>
        <mxCell id="J9kihPEdFHZ93R9M1KcA-10" value="+getA(float): IBonus&amp;nbsp;" style="text;strokeColor=none;fillColor=none;align=left;verticalAlign=middle;spacingLeft=4;spacingRight=4;overflow=hidden;points=[[0,0.5],[1,0.5]];portConstraint=eastwest;rotatable=0;whiteSpace=wrap;html=1;" parent="J9kihPEdFHZ93R9M1KcA-9" vertex="1">
          <mxGeometry y="90" width="140" height="30" as="geometry" />
        </mxCell>
        <mxCell id="J9kihPEdFHZ93R9M1KcA-11" value="+getB(float, float): IBonus" style="text;strokeColor=none;fillColor=none;align=left;verticalAlign=middle;spacingLeft=4;spacingRight=4;overflow=hidden;points=[[0,0.5],[1,0.5]];portConstraint=eastwest;rotatable=0;whiteSpace=wrap;html=1;" parent="J9kihPEdFHZ93R9M1KcA-9" vertex="1">
          <mxGeometry y="120" width="140" height="30" as="geometry" />
        </mxCell>
        <mxCell id="2yJqFmKLZ82Omg7k09fb-30" style="edgeStyle=orthogonalEdgeStyle;rounded=0;orthogonalLoop=1;jettySize=auto;html=1;dashed=1;endArrow=block;endFill=0;" edge="1" parent="J9kihPEdFHZ93R9M1KcA-9">
          <mxGeometry relative="1" as="geometry">
            <mxPoint x="-663" y="-110" as="targetPoint" />
            <mxPoint x="-3" y="140" as="sourcePoint" />
            <Array as="points">
              <mxPoint x="-663" y="140" />
            </Array>
          </mxGeometry>
        </mxCell>
        <mxCell id="J9kihPEdFHZ93R9M1KcA-12" value="+getC(float, float, float): IBonus" style="text;strokeColor=none;fillColor=none;align=left;verticalAlign=middle;spacingLeft=4;spacingRight=4;overflow=hidden;points=[[0,0.5],[1,0.5]];portConstraint=eastwest;rotatable=0;whiteSpace=wrap;html=1;" parent="J9kihPEdFHZ93R9M1KcA-9" vertex="1">
          <mxGeometry y="150" width="140" height="30" as="geometry" />
        </mxCell>
        <mxCell id="J9kihPEdFHZ93R9M1KcA-14" value="&lt;div&gt;&amp;lt;&amp;lt;constructor&amp;gt;&amp;gt;&lt;/div&gt;L2Factory(float)" style="text;strokeColor=none;fillColor=none;align=left;verticalAlign=middle;spacingLeft=4;spacingRight=4;overflow=hidden;points=[[0,0.5],[1,0.5]];portConstraint=eastwest;rotatable=0;whiteSpace=wrap;html=1;" parent="J9kihPEdFHZ93R9M1KcA-9" vertex="1">
          <mxGeometry y="180" width="140" height="30" as="geometry" />
        </mxCell>
        <mxCell id="vjHTlfv4QYHzRZHoKTjB-28" style="edgeStyle=orthogonalEdgeStyle;rounded=0;orthogonalLoop=1;jettySize=auto;html=1;exitX=0.5;exitY=0;exitDx=0;exitDy=0;dashed=1;endArrow=block;endFill=0;" parent="1" source="J9kihPEdFHZ93R9M1KcA-16" edge="1">
          <mxGeometry relative="1" as="geometry">
            <mxPoint x="850" y="340" as="targetPoint" />
            <Array as="points">
              <mxPoint x="1383" y="360" />
              <mxPoint x="850" y="360" />
            </Array>
          </mxGeometry>
        </mxCell>
        <mxCell id="J9kihPEdFHZ93R9M1KcA-16" value="+L3&lt;span style=&quot;background-color: initial;&quot;&gt;Factory&lt;/span&gt;" style="swimlane;fontStyle=0;childLayout=stackLayout;horizontal=1;startSize=30;horizontalStack=0;resizeParent=1;resizeParentMax=0;resizeLast=0;collapsible=1;marginBottom=0;whiteSpace=wrap;html=1;" parent="1" vertex="1">
          <mxGeometry x="1313" y="420" width="140" height="270" as="geometry" />
        </mxCell>
        <mxCell id="J9kihPEdFHZ93R9M1KcA-17" value="&lt;div&gt;&amp;lt;&amp;lt;getter&amp;gt;&amp;gt;&lt;/div&gt;+A: float" style="text;strokeColor=none;fillColor=none;align=left;verticalAlign=middle;spacingLeft=4;spacingRight=4;overflow=hidden;points=[[0,0.5],[1,0.5]];portConstraint=eastwest;rotatable=0;whiteSpace=wrap;html=1;" parent="J9kihPEdFHZ93R9M1KcA-16" vertex="1">
          <mxGeometry y="30" width="140" height="30" as="geometry" />
        </mxCell>
        <mxCell id="J9kihPEdFHZ93R9M1KcA-18" value="&lt;div&gt;&amp;lt;&amp;lt;setter&amp;gt;&amp;gt;&lt;/div&gt;+A: float" style="text;strokeColor=none;fillColor=none;align=left;verticalAlign=middle;spacingLeft=4;spacingRight=4;overflow=hidden;points=[[0,0.5],[1,0.5]];portConstraint=eastwest;rotatable=0;whiteSpace=wrap;html=1;" parent="J9kihPEdFHZ93R9M1KcA-16" vertex="1">
          <mxGeometry y="60" width="140" height="30" as="geometry" />
        </mxCell>
        <mxCell id="J9kihPEdFHZ93R9M1KcA-23" value="&lt;div&gt;&amp;lt;&amp;lt;getter&amp;gt;&amp;gt;&lt;/div&gt;+B: float" style="text;strokeColor=none;fillColor=none;align=left;verticalAlign=middle;spacingLeft=4;spacingRight=4;overflow=hidden;points=[[0,0.5],[1,0.5]];portConstraint=eastwest;rotatable=0;whiteSpace=wrap;html=1;" parent="J9kihPEdFHZ93R9M1KcA-16" vertex="1">
          <mxGeometry y="90" width="140" height="30" as="geometry" />
        </mxCell>
        <mxCell id="J9kihPEdFHZ93R9M1KcA-24" value="&lt;div&gt;&amp;lt;&amp;lt;getter&amp;gt;&amp;gt;&lt;/div&gt;+B: float" style="text;strokeColor=none;fillColor=none;align=left;verticalAlign=middle;spacingLeft=4;spacingRight=4;overflow=hidden;points=[[0,0.5],[1,0.5]];portConstraint=eastwest;rotatable=0;whiteSpace=wrap;html=1;" parent="J9kihPEdFHZ93R9M1KcA-16" vertex="1">
          <mxGeometry y="120" width="140" height="30" as="geometry" />
        </mxCell>
        <mxCell id="J9kihPEdFHZ93R9M1KcA-19" value="+getA(float): IBonus&amp;nbsp;" style="text;strokeColor=none;fillColor=none;align=left;verticalAlign=middle;spacingLeft=4;spacingRight=4;overflow=hidden;points=[[0,0.5],[1,0.5]];portConstraint=eastwest;rotatable=0;whiteSpace=wrap;html=1;" parent="J9kihPEdFHZ93R9M1KcA-16" vertex="1">
          <mxGeometry y="150" width="140" height="30" as="geometry" />
        </mxCell>
        <mxCell id="J9kihPEdFHZ93R9M1KcA-20" value="+getB(float, float): IBonus" style="text;strokeColor=none;fillColor=none;align=left;verticalAlign=middle;spacingLeft=4;spacingRight=4;overflow=hidden;points=[[0,0.5],[1,0.5]];portConstraint=eastwest;rotatable=0;whiteSpace=wrap;html=1;" parent="J9kihPEdFHZ93R9M1KcA-16" vertex="1">
          <mxGeometry y="180" width="140" height="30" as="geometry" />
        </mxCell>
        <mxCell id="2yJqFmKLZ82Omg7k09fb-31" style="edgeStyle=orthogonalEdgeStyle;rounded=0;orthogonalLoop=1;jettySize=auto;html=1;exitX=0;exitY=0.5;exitDx=0;exitDy=0;dashed=1;endArrow=block;endFill=0;" edge="1" parent="J9kihPEdFHZ93R9M1KcA-16" source="J9kihPEdFHZ93R9M1KcA-21">
          <mxGeometry relative="1" as="geometry">
            <mxPoint x="-833" y="-110" as="targetPoint" />
          </mxGeometry>
        </mxCell>
        <mxCell id="J9kihPEdFHZ93R9M1KcA-21" value="+getC(float, float, float): IBonus" style="text;strokeColor=none;fillColor=none;align=left;verticalAlign=middle;spacingLeft=4;spacingRight=4;overflow=hidden;points=[[0,0.5],[1,0.5]];portConstraint=eastwest;rotatable=0;whiteSpace=wrap;html=1;" parent="J9kihPEdFHZ93R9M1KcA-16" vertex="1">
          <mxGeometry y="210" width="140" height="30" as="geometry" />
        </mxCell>
        <mxCell id="J9kihPEdFHZ93R9M1KcA-22" value="&lt;div&gt;&amp;lt;&amp;lt;constructor&amp;gt;&amp;gt;&lt;/div&gt;L3Factory(float, float)" style="text;strokeColor=none;fillColor=none;align=left;verticalAlign=middle;spacingLeft=4;spacingRight=4;overflow=hidden;points=[[0,0.5],[1,0.5]];portConstraint=eastwest;rotatable=0;whiteSpace=wrap;html=1;" parent="J9kihPEdFHZ93R9M1KcA-16" vertex="1">
          <mxGeometry y="240" width="140" height="30" as="geometry" />
        </mxCell>
        <mxCell id="J9kihPEdFHZ93R9M1KcA-27" value="+BonusA" style="swimlane;fontStyle=0;childLayout=stackLayout;horizontal=1;startSize=30;horizontalStack=0;resizeParent=1;resizeParentMax=0;resizeLast=0;collapsible=1;marginBottom=0;whiteSpace=wrap;html=1;" parent="1" vertex="1">
          <mxGeometry x="-130" y="540" width="140" height="210" as="geometry" />
        </mxCell>
        <mxCell id="J9kihPEdFHZ93R9M1KcA-28" value="&amp;lt;&amp;lt;getter&amp;gt;&amp;gt;&amp;nbsp;&lt;div&gt;+cost1hour: float&lt;/div&gt;" style="text;strokeColor=none;fillColor=none;align=left;verticalAlign=middle;spacingLeft=4;spacingRight=4;overflow=hidden;points=[[0,0.5],[1,0.5]];portConstraint=eastwest;rotatable=0;whiteSpace=wrap;html=1;" parent="J9kihPEdFHZ93R9M1KcA-27" vertex="1">
          <mxGeometry y="30" width="140" height="30" as="geometry" />
        </mxCell>
        <mxCell id="J9kihPEdFHZ93R9M1KcA-31" value="&amp;lt;&amp;lt;setter&amp;gt;&amp;gt;&amp;nbsp;&lt;div&gt;+cost1hour: float&lt;/div&gt;" style="text;strokeColor=none;fillColor=none;align=left;verticalAlign=middle;spacingLeft=4;spacingRight=4;overflow=hidden;points=[[0,0.5],[1,0.5]];portConstraint=eastwest;rotatable=0;whiteSpace=wrap;html=1;" parent="J9kihPEdFHZ93R9M1KcA-27" vertex="1">
          <mxGeometry y="60" width="140" height="30" as="geometry" />
        </mxCell>
        <mxCell id="J9kihPEdFHZ93R9M1KcA-32" value="&amp;lt;&amp;lt;getter&amp;gt;&amp;gt;&amp;nbsp;&lt;div&gt;+a:float&lt;/div&gt;" style="text;strokeColor=none;fillColor=none;align=left;verticalAlign=middle;spacingLeft=4;spacingRight=4;overflow=hidden;points=[[0,0.5],[1,0.5]];portConstraint=eastwest;rotatable=0;whiteSpace=wrap;html=1;" parent="J9kihPEdFHZ93R9M1KcA-27" vertex="1">
          <mxGeometry y="90" width="140" height="30" as="geometry" />
        </mxCell>
        <mxCell id="J9kihPEdFHZ93R9M1KcA-33" value="&amp;lt;&amp;lt;setter&amp;gt;&amp;gt;&lt;div&gt;&lt;span style=&quot;background-color: initial;&quot;&gt;+a: float&lt;/span&gt;&lt;/div&gt;" style="text;strokeColor=none;fillColor=none;align=left;verticalAlign=middle;spacingLeft=4;spacingRight=4;overflow=hidden;points=[[0,0.5],[1,0.5]];portConstraint=eastwest;rotatable=0;whiteSpace=wrap;html=1;" parent="J9kihPEdFHZ93R9M1KcA-27" vertex="1">
          <mxGeometry y="120" width="140" height="30" as="geometry" />
        </mxCell>
        <mxCell id="J9kihPEdFHZ93R9M1KcA-29" value="+calc(float): float" style="text;strokeColor=none;fillColor=none;align=left;verticalAlign=middle;spacingLeft=4;spacingRight=4;overflow=hidden;points=[[0,0.5],[1,0.5]];portConstraint=eastwest;rotatable=0;whiteSpace=wrap;html=1;" parent="J9kihPEdFHZ93R9M1KcA-27" vertex="1">
          <mxGeometry y="150" width="140" height="30" as="geometry" />
        </mxCell>
        <mxCell id="J9kihPEdFHZ93R9M1KcA-30" value="&amp;lt;&amp;lt;constructor&amp;gt;&amp;gt;&amp;nbsp;&lt;div&gt;BonusA(float, float)&lt;/div&gt;" style="text;strokeColor=none;fillColor=none;align=left;verticalAlign=middle;spacingLeft=4;spacingRight=4;overflow=hidden;points=[[0,0.5],[1,0.5]];portConstraint=eastwest;rotatable=0;whiteSpace=wrap;html=1;" parent="J9kihPEdFHZ93R9M1KcA-27" vertex="1">
          <mxGeometry y="180" width="140" height="30" as="geometry" />
        </mxCell>
        <mxCell id="vjHTlfv4QYHzRZHoKTjB-35" style="edgeStyle=orthogonalEdgeStyle;rounded=0;orthogonalLoop=1;jettySize=auto;html=1;exitX=0.5;exitY=0;exitDx=0;exitDy=0;dashed=1;endArrow=block;endFill=0;" parent="1" source="3-VHo_Ouf-uklW-Cq7Ck-1" edge="1">
          <mxGeometry relative="1" as="geometry">
            <mxPoint x="480" y="310.0000000000001" as="targetPoint" />
          </mxGeometry>
        </mxCell>
        <mxCell id="3-VHo_Ouf-uklW-Cq7Ck-1" value="+BonusB" style="swimlane;fontStyle=0;childLayout=stackLayout;horizontal=1;startSize=30;horizontalStack=0;resizeParent=1;resizeParentMax=0;resizeLast=0;collapsible=1;marginBottom=0;whiteSpace=wrap;html=1;" parent="1" vertex="1">
          <mxGeometry x="40" y="540" width="140" height="290" as="geometry" />
        </mxCell>
        <mxCell id="3-VHo_Ouf-uklW-Cq7Ck-2" value="&amp;lt;&amp;lt;getter&amp;gt;&amp;gt;&amp;nbsp;&lt;div&gt;+cost1hour: float&lt;/div&gt;" style="text;strokeColor=none;fillColor=none;align=left;verticalAlign=middle;spacingLeft=4;spacingRight=4;overflow=hidden;points=[[0,0.5],[1,0.5]];portConstraint=eastwest;rotatable=0;whiteSpace=wrap;html=1;" parent="3-VHo_Ouf-uklW-Cq7Ck-1" vertex="1">
          <mxGeometry y="30" width="140" height="30" as="geometry" />
        </mxCell>
        <mxCell id="3-VHo_Ouf-uklW-Cq7Ck-3" value="&amp;lt;&amp;lt;setter&amp;gt;&amp;gt;&amp;nbsp;&lt;div&gt;cost1hour: float&lt;/div&gt;" style="text;strokeColor=none;fillColor=none;align=left;verticalAlign=middle;spacingLeft=4;spacingRight=4;overflow=hidden;points=[[0,0.5],[1,0.5]];portConstraint=eastwest;rotatable=0;whiteSpace=wrap;html=1;" parent="3-VHo_Ouf-uklW-Cq7Ck-1" vertex="1">
          <mxGeometry y="60" width="140" height="30" as="geometry" />
        </mxCell>
        <mxCell id="3-VHo_Ouf-uklW-Cq7Ck-4" value="&amp;lt;&amp;lt;getter&amp;gt;&amp;gt;&amp;nbsp;&lt;div&gt;+a: float&lt;/div&gt;" style="text;strokeColor=none;fillColor=none;align=left;verticalAlign=middle;spacingLeft=4;spacingRight=4;overflow=hidden;points=[[0,0.5],[1,0.5]];portConstraint=eastwest;rotatable=0;whiteSpace=wrap;html=1;" parent="3-VHo_Ouf-uklW-Cq7Ck-1" vertex="1">
          <mxGeometry y="90" width="140" height="30" as="geometry" />
        </mxCell>
        <mxCell id="3-VHo_Ouf-uklW-Cq7Ck-5" value="&amp;lt;&amp;lt;setter&amp;gt;&amp;gt;&amp;nbsp;&lt;div&gt;+a:float&lt;/div&gt;" style="text;strokeColor=none;fillColor=none;align=left;verticalAlign=middle;spacingLeft=4;spacingRight=4;overflow=hidden;points=[[0,0.5],[1,0.5]];portConstraint=eastwest;rotatable=0;whiteSpace=wrap;html=1;" parent="3-VHo_Ouf-uklW-Cq7Ck-1" vertex="1">
          <mxGeometry y="120" width="140" height="30" as="geometry" />
        </mxCell>
        <mxCell id="3-VHo_Ouf-uklW-Cq7Ck-8" value="&amp;lt;&amp;lt;getter&amp;gt;&amp;gt;&amp;nbsp;&lt;div&gt;+x: float&lt;/div&gt;" style="text;strokeColor=none;fillColor=none;align=left;verticalAlign=middle;spacingLeft=4;spacingRight=4;overflow=hidden;points=[[0,0.5],[1,0.5]];portConstraint=eastwest;rotatable=0;whiteSpace=wrap;html=1;" parent="3-VHo_Ouf-uklW-Cq7Ck-1" vertex="1">
          <mxGeometry y="150" width="140" height="30" as="geometry" />
        </mxCell>
        <mxCell id="3-VHo_Ouf-uklW-Cq7Ck-9" value="&amp;lt;&amp;lt;setter&amp;gt;&amp;gt;&amp;nbsp;&lt;div&gt;+x: float&lt;/div&gt;" style="text;strokeColor=none;fillColor=none;align=left;verticalAlign=middle;spacingLeft=4;spacingRight=4;overflow=hidden;points=[[0,0.5],[1,0.5]];portConstraint=eastwest;rotatable=0;whiteSpace=wrap;html=1;" parent="3-VHo_Ouf-uklW-Cq7Ck-1" vertex="1">
          <mxGeometry y="180" width="140" height="30" as="geometry" />
        </mxCell>
        <mxCell id="3-VHo_Ouf-uklW-Cq7Ck-6" value="+calc(float): float" style="text;strokeColor=none;fillColor=none;align=left;verticalAlign=middle;spacingLeft=4;spacingRight=4;overflow=hidden;points=[[0,0.5],[1,0.5]];portConstraint=eastwest;rotatable=0;whiteSpace=wrap;html=1;" parent="3-VHo_Ouf-uklW-Cq7Ck-1" vertex="1">
          <mxGeometry y="210" width="140" height="30" as="geometry" />
        </mxCell>
        <mxCell id="3-VHo_Ouf-uklW-Cq7Ck-7" value="&amp;lt;&amp;lt;constructor&amp;gt;&amp;gt;&amp;nbsp;&lt;div&gt;BonusB(float, float, float)&lt;/div&gt;" style="text;strokeColor=none;fillColor=none;align=left;verticalAlign=middle;spacingLeft=4;spacingRight=4;overflow=hidden;points=[[0,0.5],[1,0.5]];portConstraint=eastwest;rotatable=0;whiteSpace=wrap;html=1;" parent="3-VHo_Ouf-uklW-Cq7Ck-1" vertex="1">
          <mxGeometry y="240" width="140" height="50" as="geometry" />
        </mxCell>
        <mxCell id="vjHTlfv4QYHzRZHoKTjB-36" style="edgeStyle=orthogonalEdgeStyle;rounded=0;orthogonalLoop=1;jettySize=auto;html=1;exitX=0.5;exitY=0;exitDx=0;exitDy=0;dashed=1;endArrow=block;endFill=0;" parent="1" source="3-VHo_Ouf-uklW-Cq7Ck-10" edge="1">
          <mxGeometry relative="1" as="geometry">
            <mxPoint x="480" y="310.0000000000001" as="targetPoint" />
            <Array as="points">
              <mxPoint x="310" y="540" />
              <mxPoint x="310" y="490" />
              <mxPoint x="481" y="490" />
              <mxPoint x="481" y="310" />
            </Array>
          </mxGeometry>
        </mxCell>
        <mxCell id="3-VHo_Ouf-uklW-Cq7Ck-10" value="+BonusC" style="swimlane;fontStyle=0;childLayout=stackLayout;horizontal=1;startSize=30;horizontalStack=0;resizeParent=1;resizeParentMax=0;resizeLast=0;collapsible=1;marginBottom=0;whiteSpace=wrap;html=1;" parent="1" vertex="1">
          <mxGeometry x="230" y="540" width="140" height="350" as="geometry" />
        </mxCell>
        <mxCell id="3-VHo_Ouf-uklW-Cq7Ck-11" value="&amp;lt;&amp;lt;getter&amp;gt;&amp;gt;&amp;nbsp;&lt;div&gt;+cost1hour: float&lt;/div&gt;" style="text;strokeColor=none;fillColor=none;align=left;verticalAlign=middle;spacingLeft=4;spacingRight=4;overflow=hidden;points=[[0,0.5],[1,0.5]];portConstraint=eastwest;rotatable=0;whiteSpace=wrap;html=1;" parent="3-VHo_Ouf-uklW-Cq7Ck-10" vertex="1">
          <mxGeometry y="30" width="140" height="30" as="geometry" />
        </mxCell>
        <mxCell id="3-VHo_Ouf-uklW-Cq7Ck-12" value="&amp;lt;&amp;lt;setter&amp;gt;&amp;gt;&amp;nbsp;&lt;div&gt;+cost1hour: float&lt;/div&gt;" style="text;strokeColor=none;fillColor=none;align=left;verticalAlign=middle;spacingLeft=4;spacingRight=4;overflow=hidden;points=[[0,0.5],[1,0.5]];portConstraint=eastwest;rotatable=0;whiteSpace=wrap;html=1;" parent="3-VHo_Ouf-uklW-Cq7Ck-10" vertex="1">
          <mxGeometry y="60" width="140" height="30" as="geometry" />
        </mxCell>
        <mxCell id="3-VHo_Ouf-uklW-Cq7Ck-13" value="&amp;lt;&amp;lt;getter&amp;gt;&amp;gt;&amp;nbsp;&lt;div&gt;+a: float&lt;/div&gt;" style="text;strokeColor=none;fillColor=none;align=left;verticalAlign=middle;spacingLeft=4;spacingRight=4;overflow=hidden;points=[[0,0.5],[1,0.5]];portConstraint=eastwest;rotatable=0;whiteSpace=wrap;html=1;" parent="3-VHo_Ouf-uklW-Cq7Ck-10" vertex="1">
          <mxGeometry y="90" width="140" height="30" as="geometry" />
        </mxCell>
        <mxCell id="3-VHo_Ouf-uklW-Cq7Ck-14" value="&amp;lt;&amp;lt;setter&amp;gt;&amp;gt;&amp;nbsp;&lt;div&gt;+a: float&lt;/div&gt;" style="text;strokeColor=none;fillColor=none;align=left;verticalAlign=middle;spacingLeft=4;spacingRight=4;overflow=hidden;points=[[0,0.5],[1,0.5]];portConstraint=eastwest;rotatable=0;whiteSpace=wrap;html=1;" parent="3-VHo_Ouf-uklW-Cq7Ck-10" vertex="1">
          <mxGeometry y="120" width="140" height="30" as="geometry" />
        </mxCell>
        <mxCell id="3-VHo_Ouf-uklW-Cq7Ck-15" value="&amp;lt;&amp;lt;getter&amp;gt;&amp;gt;&amp;nbsp;&lt;div&gt;+x: float&lt;/div&gt;" style="text;strokeColor=none;fillColor=none;align=left;verticalAlign=middle;spacingLeft=4;spacingRight=4;overflow=hidden;points=[[0,0.5],[1,0.5]];portConstraint=eastwest;rotatable=0;whiteSpace=wrap;html=1;" parent="3-VHo_Ouf-uklW-Cq7Ck-10" vertex="1">
          <mxGeometry y="150" width="140" height="30" as="geometry" />
        </mxCell>
        <mxCell id="3-VHo_Ouf-uklW-Cq7Ck-16" value="&amp;lt;&amp;lt;setter&amp;gt;&amp;gt;&amp;nbsp;&lt;div&gt;+x: float&lt;/div&gt;" style="text;strokeColor=none;fillColor=none;align=left;verticalAlign=middle;spacingLeft=4;spacingRight=4;overflow=hidden;points=[[0,0.5],[1,0.5]];portConstraint=eastwest;rotatable=0;whiteSpace=wrap;html=1;" parent="3-VHo_Ouf-uklW-Cq7Ck-10" vertex="1">
          <mxGeometry y="180" width="140" height="30" as="geometry" />
        </mxCell>
        <mxCell id="3-VHo_Ouf-uklW-Cq7Ck-19" value="&amp;lt;&amp;lt;getter&amp;gt;&amp;gt;&amp;nbsp;&lt;div&gt;+y: float&lt;/div&gt;" style="text;strokeColor=none;fillColor=none;align=left;verticalAlign=middle;spacingLeft=4;spacingRight=4;overflow=hidden;points=[[0,0.5],[1,0.5]];portConstraint=eastwest;rotatable=0;whiteSpace=wrap;html=1;" parent="3-VHo_Ouf-uklW-Cq7Ck-10" vertex="1">
          <mxGeometry y="210" width="140" height="30" as="geometry" />
        </mxCell>
        <mxCell id="3-VHo_Ouf-uklW-Cq7Ck-20" value="&amp;lt;&amp;lt;setter&amp;gt;&amp;gt;&amp;nbsp;&lt;div&gt;+y: float&lt;/div&gt;" style="text;strokeColor=none;fillColor=none;align=left;verticalAlign=middle;spacingLeft=4;spacingRight=4;overflow=hidden;points=[[0,0.5],[1,0.5]];portConstraint=eastwest;rotatable=0;whiteSpace=wrap;html=1;" parent="3-VHo_Ouf-uklW-Cq7Ck-10" vertex="1">
          <mxGeometry y="240" width="140" height="30" as="geometry" />
        </mxCell>
        <mxCell id="3-VHo_Ouf-uklW-Cq7Ck-17" value="+calc(float): float" style="text;strokeColor=none;fillColor=none;align=left;verticalAlign=middle;spacingLeft=4;spacingRight=4;overflow=hidden;points=[[0,0.5],[1,0.5]];portConstraint=eastwest;rotatable=0;whiteSpace=wrap;html=1;" parent="3-VHo_Ouf-uklW-Cq7Ck-10" vertex="1">
          <mxGeometry y="270" width="140" height="30" as="geometry" />
        </mxCell>
        <mxCell id="3-VHo_Ouf-uklW-Cq7Ck-18" value="&amp;lt;&amp;lt;constructor&amp;gt;&amp;gt;&amp;nbsp;&lt;div&gt;BonusC(float, float, float, float&lt;span style=&quot;background-color: initial;&quot;&gt;)&lt;/span&gt;&lt;/div&gt;" style="text;strokeColor=none;fillColor=none;align=left;verticalAlign=middle;spacingLeft=4;spacingRight=4;overflow=hidden;points=[[0,0.5],[1,0.5]];portConstraint=eastwest;rotatable=0;whiteSpace=wrap;html=1;" parent="3-VHo_Ouf-uklW-Cq7Ck-10" vertex="1">
          <mxGeometry y="300" width="140" height="50" as="geometry" />
        </mxCell>
        <mxCell id="vjHTlfv4QYHzRZHoKTjB-1" value="&amp;lt;&amp;lt;interface&amp;gt;&amp;gt;&lt;div&gt;IBonus&lt;/div&gt;" style="swimlane;fontStyle=0;childLayout=stackLayout;horizontal=1;startSize=30;horizontalStack=0;resizeParent=1;resizeParentMax=0;resizeLast=0;collapsible=1;marginBottom=0;whiteSpace=wrap;html=1;" parent="1" vertex="1">
          <mxGeometry x="414" y="220" width="140" height="90" as="geometry" />
        </mxCell>
        <mxCell id="vjHTlfv4QYHzRZHoKTjB-2" value="cost1hour: float" style="text;strokeColor=none;fillColor=none;align=left;verticalAlign=middle;spacingLeft=4;spacingRight=4;overflow=hidden;points=[[0,0.5],[1,0.5]];portConstraint=eastwest;rotatable=0;whiteSpace=wrap;html=1;" parent="vjHTlfv4QYHzRZHoKTjB-1" vertex="1">
          <mxGeometry y="30" width="140" height="30" as="geometry" />
        </mxCell>
        <mxCell id="vjHTlfv4QYHzRZHoKTjB-3" value="calc(float): float" style="text;strokeColor=none;fillColor=none;align=left;verticalAlign=middle;spacingLeft=4;spacingRight=4;overflow=hidden;points=[[0,0.5],[1,0.5]];portConstraint=eastwest;rotatable=0;whiteSpace=wrap;html=1;" parent="vjHTlfv4QYHzRZHoKTjB-1" vertex="1">
          <mxGeometry y="60" width="140" height="30" as="geometry" />
        </mxCell>
        <mxCell id="vjHTlfv4QYHzRZHoKTjB-5" value="&amp;lt;&amp;lt;interface&amp;gt;&amp;gt;&lt;div&gt;IFactory&lt;/div&gt;" style="swimlane;fontStyle=0;childLayout=stackLayout;horizontal=1;startSize=30;horizontalStack=0;resizeParent=1;resizeParentMax=0;resizeLast=0;collapsible=1;marginBottom=0;whiteSpace=wrap;html=1;" parent="1" vertex="1">
          <mxGeometry x="790" y="220" width="140" height="120" as="geometry" />
        </mxCell>
        <mxCell id="vjHTlfv4QYHzRZHoKTjB-6" value="getA(float): IBonus" style="text;strokeColor=none;fillColor=none;align=left;verticalAlign=middle;spacingLeft=4;spacingRight=4;overflow=hidden;points=[[0,0.5],[1,0.5]];portConstraint=eastwest;rotatable=0;whiteSpace=wrap;html=1;" parent="vjHTlfv4QYHzRZHoKTjB-5" vertex="1">
          <mxGeometry y="30" width="140" height="30" as="geometry" />
        </mxCell>
        <mxCell id="vjHTlfv4QYHzRZHoKTjB-7" value="getB(float, float): IBonus" style="text;strokeColor=none;fillColor=none;align=left;verticalAlign=middle;spacingLeft=4;spacingRight=4;overflow=hidden;points=[[0,0.5],[1,0.5]];portConstraint=eastwest;rotatable=0;whiteSpace=wrap;html=1;" parent="vjHTlfv4QYHzRZHoKTjB-5" vertex="1">
          <mxGeometry y="60" width="140" height="30" as="geometry" />
        </mxCell>
        <mxCell id="vjHTlfv4QYHzRZHoKTjB-8" value="getC(float, float, float): IBonus" style="text;strokeColor=none;fillColor=none;align=left;verticalAlign=middle;spacingLeft=4;spacingRight=4;overflow=hidden;points=[[0,0.5],[1,0.5]];portConstraint=eastwest;rotatable=0;whiteSpace=wrap;html=1;" parent="vjHTlfv4QYHzRZHoKTjB-5" vertex="1">
          <mxGeometry y="90" width="140" height="30" as="geometry" />
        </mxCell>
        <mxCell id="vjHTlfv4QYHzRZHoKTjB-13" style="edgeStyle=orthogonalEdgeStyle;rounded=0;orthogonalLoop=1;jettySize=auto;html=1;exitX=0;exitY=0.5;exitDx=0;exitDy=0;entryX=1;entryY=0.5;entryDx=0;entryDy=0;" parent="1" source="J9kihPEdFHZ93R9M1KcA-2" target="vjHTlfv4QYHzRZHoKTjB-2" edge="1">
          <mxGeometry relative="1" as="geometry" />
        </mxCell>
        <mxCell id="vjHTlfv4QYHzRZHoKTjB-14" style="edgeStyle=orthogonalEdgeStyle;rounded=0;orthogonalLoop=1;jettySize=auto;html=1;exitX=1;exitY=0.5;exitDx=0;exitDy=0;entryX=0;entryY=0.5;entryDx=0;entryDy=0;" parent="1" source="J9kihPEdFHZ93R9M1KcA-2" target="vjHTlfv4QYHzRZHoKTjB-6" edge="1">
          <mxGeometry relative="1" as="geometry" />
        </mxCell>
        <mxCell id="vjHTlfv4QYHzRZHoKTjB-26" style="edgeStyle=orthogonalEdgeStyle;rounded=0;orthogonalLoop=1;jettySize=auto;html=1;exitX=0.5;exitY=0;exitDx=0;exitDy=0;entryX=0.431;entryY=0.967;entryDx=0;entryDy=0;entryPerimeter=0;endArrow=block;endFill=0;dashed=1;" parent="1" source="J9kihPEdFHZ93R9M1KcA-5" target="vjHTlfv4QYHzRZHoKTjB-8" edge="1">
          <mxGeometry relative="1" as="geometry">
            <Array as="points">
              <mxPoint x="1050" y="420" />
              <mxPoint x="1050" y="360" />
              <mxPoint x="850" y="360" />
            </Array>
          </mxGeometry>
        </mxCell>
        <mxCell id="vjHTlfv4QYHzRZHoKTjB-29" style="edgeStyle=orthogonalEdgeStyle;rounded=0;orthogonalLoop=1;jettySize=auto;html=1;exitX=0.5;exitY=0;exitDx=0;exitDy=0;dashed=1;endArrow=block;endFill=0;" parent="1" source="J9kihPEdFHZ93R9M1KcA-27" edge="1">
          <mxGeometry relative="1" as="geometry">
            <mxPoint x="480" y="310" as="targetPoint" />
            <Array as="points">
              <mxPoint x="180" y="355" />
              <mxPoint x="480" y="355" />
              <mxPoint x="480" y="310" />
            </Array>
          </mxGeometry>
        </mxCell>
        <mxCell id="2yJqFmKLZ82Omg7k09fb-29" style="edgeStyle=orthogonalEdgeStyle;rounded=0;orthogonalLoop=1;jettySize=auto;html=1;entryX=0.476;entryY=1.072;entryDx=0;entryDy=0;entryPerimeter=0;dashed=1;endArrow=block;endFill=0;" edge="1" parent="1" source="J9kihPEdFHZ93R9M1KcA-6" target="vjHTlfv4QYHzRZHoKTjB-3">
          <mxGeometry relative="1" as="geometry">
            <Array as="points">
              <mxPoint x="481" y="450" />
            </Array>
          </mxGeometry>
        </mxCell>
        <mxCell id="2yJqFmKLZ82Omg7k09fb-32" value="Employee" style="swimlane;fontStyle=0;childLayout=stackLayout;horizontal=1;startSize=30;horizontalStack=0;resizeParent=1;resizeParentMax=0;resizeLast=0;collapsible=1;marginBottom=0;whiteSpace=wrap;html=1;" vertex="1" parent="1">
          <mxGeometry x="600" y="30" width="140" height="150" as="geometry" />
        </mxCell>
        <mxCell id="2yJqFmKLZ82Omg7k09fb-33" value="&amp;lt;&amp;lt;getter&amp;gt;&amp;gt;&lt;div&gt;+bonus: IBonus&lt;/div&gt;" style="text;strokeColor=none;fillColor=none;align=left;verticalAlign=middle;spacingLeft=4;spacingRight=4;overflow=hidden;points=[[0,0.5],[1,0.5]];portConstraint=eastwest;rotatable=0;whiteSpace=wrap;html=1;" vertex="1" parent="2yJqFmKLZ82Omg7k09fb-32">
          <mxGeometry y="30" width="140" height="30" as="geometry" />
        </mxCell>
        <mxCell id="2yJqFmKLZ82Omg7k09fb-36" value="&amp;lt;&amp;lt;setter&amp;gt;&amp;gt;&lt;div&gt;+bonus: IBonus&lt;/div&gt;" style="text;strokeColor=none;fillColor=none;align=left;verticalAlign=middle;spacingLeft=4;spacingRight=4;overflow=hidden;points=[[0,0.5],[1,0.5]];portConstraint=eastwest;rotatable=0;whiteSpace=wrap;html=1;" vertex="1" parent="2yJqFmKLZ82Omg7k09fb-32">
          <mxGeometry y="60" width="140" height="30" as="geometry" />
        </mxCell>
        <mxCell id="2yJqFmKLZ82Omg7k09fb-34" value="+calcBonus(float): float" style="text;strokeColor=none;fillColor=none;align=left;verticalAlign=middle;spacingLeft=4;spacingRight=4;overflow=hidden;points=[[0,0.5],[1,0.5]];portConstraint=eastwest;rotatable=0;whiteSpace=wrap;html=1;" vertex="1" parent="2yJqFmKLZ82Omg7k09fb-32">
          <mxGeometry y="90" width="140" height="30" as="geometry" />
        </mxCell>
        <mxCell id="2yJqFmKLZ82Omg7k09fb-35" value="&amp;lt;&amp;lt;constructor&amp;gt;&amp;gt;&lt;div&gt;Employee(IBonus)&lt;/div&gt;" style="text;strokeColor=none;fillColor=none;align=left;verticalAlign=middle;spacingLeft=4;spacingRight=4;overflow=hidden;points=[[0,0.5],[1,0.5]];portConstraint=eastwest;rotatable=0;whiteSpace=wrap;html=1;" vertex="1" parent="2yJqFmKLZ82Omg7k09fb-32">
          <mxGeometry y="120" width="140" height="30" as="geometry" />
        </mxCell>
        <mxCell id="2yJqFmKLZ82Omg7k09fb-37" style="edgeStyle=orthogonalEdgeStyle;rounded=0;orthogonalLoop=1;jettySize=auto;html=1;exitX=0;exitY=0.5;exitDx=0;exitDy=0;entryX=0.5;entryY=0;entryDx=0;entryDy=0;endArrow=block;endFill=0;dashed=1;" edge="1" parent="1" source="2yJqFmKLZ82Omg7k09fb-36" target="vjHTlfv4QYHzRZHoKTjB-1">
          <mxGeometry relative="1" as="geometry" />
        </mxCell>
      </root>
    </mxGraphModel>
  </diagram>
</mxfile>
